#!OML:ASF E:\inclinewalkrobotboard\Project 1\Capture day 1\Session 1\subject1.ASF
:FULLY-SPECIFIED
:DEGREES
189
root 6.8873 18.5979 25.1762 -166.066 4.87213 177.109
lowerback 3.88504 0.704288 -11.1937
upperback 3.24649 0.874316 -0.47152
thorax 1.08606 0.345076 5.76291
lowerneck -4.1592 -0.768254 -3.37546
upperneck 17.3233 -0.861442 6.63965
head 5.94762 0.200263 2.64928
rclavicle 4.77083e-015 8.74653e-015
rhumerus -46.6718 -29.3942 -63.3005
rradius 21.9106
rwrist 19.2412
rhand -17.5256 -34.506
rfingers 7.12502
rthumb 8.72811 -64.3056
lclavicle 4.77083e-015 8.74653e-015
lhumerus -25.1778 -3.91391 87.5122
lradius 26.906
lwrist -18.6715
lhand -29.7961 -25.5216
lfingers 7.12502
lthumb -3.12055 4.43533
rfemur -48.4718 3.26825 15.7603
rtibia 66.2218
rfoot -14.8159 -6.14437
rtoes -21.5916
lfemur -21.468 -7.60855 -25.4344
ltibia 20.4688
lfoot -18.2236 -7.96667
ltoes 10.7437
190
root 6.87562 18.6184 24.923 -166.308 4.50174 177.375
lowerback 3.75114 0.385534 -10.8555
upperback 3.20004 0.449993 -0.196942
thorax 1.18448 0.123496 5.87729
lowerneck -4.37141 -0.667905 -3.46972
upperneck 17.7729 -0.681195 6.51361
head 6.11694 0.290392 2.64547
rclavicle 3.97569e-016 -5.96354e-015
rhumerus -48.7459 -31.0196 -60.4479
rradius 20.9435
rwrist 21.2472
rhand -16.9069 -35.4667
rfingers 7.12502
rthumb 9.32519 -65.2404
lclavicle 3.97569e-016 -5.96354e-015
lhumerus -24.8303 -4.61983 88.1042
lradius 28.3247
lwrist -17.7537
lhand -30.0166 -25.2712
lfingers 7.12502
lthumb -3.3335 4.6825
rfemur -50.2206 3.19243 15.9446
rtibia 63.2669
rfoot -15.5645 -6.34144
rtoes -20.3755
lfemur -19.5131 -7.69574 -25.3951
ltibia 19.302
lfoot -18.4247 -8.40089
ltoes 10.9316
191
root 6.87098 18.6317 24.6658 -166.513 4.09638 177.569
lowerback 3.56036 0.112629 -10.5669
upperback 3.12725 0.0933871 -0.00763542
thorax 1.27535 -0.0614138 5.92466
lowerneck -4.4244 -0.616563 -3.40437
upperneck 18.0348 -0.592943 6.44744
head 6.20425 0.344832 2.62451
rclavicle -5.96354e-016 -2.26615e-014
rhumerus -51.3396 -33.1107 -57.0209
rradius 19.9705
rwrist 23.7161
rhand -16.6173 -35.7048
rfingers 7.12502
rthumb 9.60457 -65.4659
lclavicle -5.96354e-016 -2.26615e-014
lhumerus -24.4622 -5.35324 88.5334
lradius 29.5511
lwrist -17.1989
lhand -30.1589 -25.3639
lfingers 7.12502
lthumb -3.47087 4.58759
rfemur -51.6267 3.13206 16.0217
rtibia 59.703
rfoot -16.0525 -6.80631
rtoes -18.8825
lfemur -17.669 -7.71705 -25.4017
ltibia 18.2926
lfoot -18.257 -8.92695
ltoes 12.1897
192
root 6.87257 18.6352 24.4156 -166.731 3.73377 177.454
lowerback 3.48366 -0.120136 -10.6813
upperback 3.0407 -0.226075 0.114253
thorax 1.28734 -0.226101 6.12513
lowerneck -4.57237 -0.582652 -3.23498
upperneck 18.3359 -0.519275 6.24193
head 6.32181 0.388961 2.54143
rclavicle 6.4605e-015 1.98785e-015
rhumerus -54.2073 -35.0705 -53.3165
rradius 19.0539
rwrist 26.108
rhand -16.6828 -35.5175
rfingers 7.12502
rthumb 9.54139 -65.2815
lclavicle 6.4605e-015 1.98785e-015
lhumerus -24.0488 -6.03597 88.9235
lradius 30.7611
lwrist -16.961
lhand -30.1769 -25.3326
lfingers 7.12502
lthumb -3.48832 4.61855
rfemur -52.8446 3.0538 15.6899
rtibia 55.8704
rfoot -16.2925 -7.44721
rtoes -18.6905
lfemur -15.9873 -7.60955 -25.7155
ltibia 17.4715
lfoot -18.2214 -9.58534
ltoes 12.424
193
root 6.87621 18.6293 24.1613 -167.027 3.31507 177.24
lowerback 3.46504 -0.384971 -10.9253
upperback 3.01714 -0.589219 0.270983
thorax 1.34812 -0.418208 6.43596
lowerneck -4.80509 -0.51016 -3.24094
upperneck 18.6557 -0.381652 6.06015
head 6.45787 0.452252 2.50054
rclavicle 3.08116e-014 7.55382e-014
rhumerus -57.2065 -36.9538 -49.1329
rradius 18.0648
rwrist 28.6768
rhand -16.4392 -35.6604
rfingers 7.12502
rthumb 9.7764 -65.4134
lclavicle 3.08116e-014 7.55382e-014
lhumerus -23.6089 -6.47401 89.3409
lradius 31.9862
lwrist -16.9908
lhand -29.9798 -24.5733
lfingers 7.12502
lthumb -3.2979 5.38094
rfemur -53.6895 2.88537 15.2106
rtibia 51.8047
rfoot -16.6704 -7.85008
rtoes -19.5223
lfemur -14.1929 -7.56039 -26.1408
ltibia 16.6318
lfoot -18.4068 -10.2227
ltoes 12.1283
194
root 6.87906 18.6175 23.8998 -167.288 2.87703 177.148
lowerback 3.34108 -0.664457 -10.978
upperback 3.02448 -0.953813 0.434673
thorax 1.50063 -0.614767 6.64346
lowerneck -5.11094 -0.441916 -3.27538
upperneck 19.107 -0.241626 5.90553
head 6.64957 0.522097 2.47708
rclavicle 6.95746e-016 1.37161e-014
rhumerus -60.853 -39.2491 -43.8303
rradius 16.9853
rwrist 32.085
rhand -15.9531 -35.806
rfingers 7.12502
rthumb 10.2454 -65.5365
lclavicle 6.95746e-016 1.37161e-014
lhumerus -23.1096 -6.86132 89.7091
lradius 33.0107
lwrist -17.002
lhand -29.8818 -24.4264
lfingers 7.12502
lthumb -3.20331 5.52924
rfemur -54.2511 2.73884 14.8024
rtibia 47.4731
rfoot -15.9837 -7.9254
rtoes -20.4477
lfemur -12.3974 -7.62623 -26.4399
ltibia 15.8364
lfoot -18.5773 -10.6706
ltoes 12.4674
195
root 6.88428 18.5992 23.6392 -167.462 2.40894 177.148
lowerback 3.18876 -0.933363 -10.899
upperback 3.00483 -1.30209 0.575265
thorax 1.63475 -0.799389 6.7491
lowerneck -5.48417 -0.417641 -3.16226
upperneck 19.7055 -0.147701 5.64051
head 6.90462 0.577093 2.39386
rclavicle 5.56597e-015 2.68359e-014
rhumerus -65.2105 -41.5126 -37.7319
rradius 15.982
rwrist 35.9029
rhand -15.6889 -36.0721
rfingers 7.12502
rthumb 10.5002 -65.7899
lclavicle 5.56597e-015 2.68359e-014
lhumerus -22.6401 -7.33648 89.994
lradius 33.9527
lwrist -16.9786
lhand -29.932 -25.3388
lfingers 7.12502
lthumb -3.25175 4.61616
rfemur -54.7153 2.62865 14.4525
rtibia 43.1742
rfoot -15.7918 -7.18945
rtoes -21.7945
lfemur -10.8826 -7.58326 -26.5911
ltibia 15.3352
lfoot -18.6021 -11.0982
ltoes 12.8023
196
root 6.89257 18.574 23.3752 -167.669 1.82987 177.066
lowerback 3.11314 -1.21801 -10.8801
upperback 2.9949 -1.67822 0.697816
thorax 1.74467 -0.996592 6.86903
lowerneck -5.65267 -0.394018 -3.18327
upperneck 20.0809 -0.0745449 5.55334
head 7.05304 0.618959 2.384
rclavicle 7.55382e-015 2.22639e-014
rhumerus -70.0647 -43.2742 -31.2097
rradius 15.1162
rwrist 40.0093
rhand -15.7115 -36.4148
rfingers 7.12502
rthumb 10.4785 -66.1337
lclavicle 7.55382e-015 2.22639e-014
lhumerus -22.2063 -7.72077 90.2486
lradius 34.8687
lwrist -17.0522
lhand -29.8152 -25.7534
lfingers 7.12502
lthumb -3.13902 4.20328
rfemur -54.9818 2.39338 14.0345
rtibia 39.2183
rfoot -15.1655 -6.13603
rtoes -22.2448
lfemur -9.3596 -7.48739 -26.807
ltibia 14.8863
lfoot -18.4928 -11.627
ltoes 12.8573
197
root 6.90192 18.5438 23.1056 -167.926 1.26192 176.876
lowerback 3.03663 -1.45539 -10.9225
upperback 3.05076 -1.98149 0.766329
thorax 1.91271 -1.16099 6.96305
lowerneck -5.65841 -0.412294 -3.2822
upperneck 20.2194 -0.0881435 5.62122
head 7.09948 0.617822 2.42534
rclavicle 2.48481e-015 -6.36111e-015
rhumerus -75.6493 -44.7155 -23.8527
rradius 14.3162
rwrist 44.6721
rhand -15.6282 -36.6221
rfingers 7.12502
rthumb 10.5588 -66.3368
lclavicle 2.48481e-015 -6.36111e-015
lhumerus -21.6081 -8.15113 90.4993
lradius 35.4679
lwrist -17.0742
lhand -29.8016 -25.7992
lfingers 7.12502
lthumb -3.12582 4.15765
rfemur -55.0322 2.16914 13.4997
rtibia 35.5835
rfoot -15.1652 -4.6797
rtoes -23.6937
lfemur -7.71353 -7.42958 -27.1442
ltibia 14.3992
lfoot -18.389 -12.1219
ltoes 12.5538
198
root 6.91372 18.5117 22.8328 -168.206 0.678876 176.695
lowerback 2.97785 -1.66765 -10.9452
upperback 3.14507 -2.248 0.830502
thorax 2.10429 -1.30833 7.03957
lowerneck -5.5955 -0.430078 -3.18397
upperneck 20.2696 -0.0867676 5.44672
head 7.10522 0.613569 2.3526
rclavicle -1.78409e-014 -1.23246e-014
rhumerus -81.9986 -45.7815 -15.4897
rradius 13.5421
rwrist 49.8746
rhand -15.4114 -36.663
rfingers 7.12502
rthumb 10.768 -66.367
lclavicle -1.78409e-014 -1.23246e-014
lhumerus -20.821 -8.62062 90.7448
lradius 35.6609
lwrist -17.101
lhand -29.8857 -26.002
lfingers 7.12502
lthumb -3.20707 3.95359
rfemur -54.8121 1.97211 12.9971
rtibia 32.128
rfoot -15.0207 -3.85941
rtoes -24.3121
lfemur -6.16573 -7.4139 -27.433
ltibia 14.2835
lfoot -18.3911 -12.6293
ltoes 11.9321
199
root 6.93017 18.4798 22.5586 -168.489 -0.0240351 176.651
lowerback 2.94847 -1.66852 -10.8564
upperback 3.28535 -2.58587 0.996188
thorax 2.31467 -1.63913 7.15584
lowerneck -5.68148 -0.395464 -3.10866
upperneck 20.3382 -0.0119554 5.25129
head 7.14018 0.639357 2.28352
rclavicle -1.60022e-014 6.85807e-015
rhumerus -88.2851 -46.2266 -7.1937
rradius 12.927
rwrist 55.0304
rhand -15.2098 -36.9352
rfingers 7.12502
rthumb 10.9624 -66.629
lclavicle -1.60022e-014 6.85807e-015
lhumerus -19.9307 -8.96462 91.0251
lradius 35.646
lwrist -17.3078
lhand -29.8499 -26.0748
lfingers 7.12502
lthumb -3.17252 3.88139
rfemur -54.4149 1.66105 12.7348
rtibia 29.1739
rfoot -13.6027 -3.64196
rtoes -28.5002
lfemur -4.76147 -7.46827 -27.4832
ltibia 14.4731
lfoot -18.3529 -13.1452
ltoes 11.3328
200
root 6.94993 18.4485 22.2808 -168.776 -0.756388 176.609
lowerback 2.90582 -1.80909 -10.7511
upperback 3.49271 -2.77052 1.14025
thorax 2.59757 -1.7607 7.24024
lowerneck -6.17 -0.452631 -3.03323
upperneck 20.7646 -0.0614235 5.12548
head 7.36984 0.62447 2.23811
rclavicle -1.16786e-014 -1.31198e-014
rhumerus -93.5073 -46.06 -0.527648
rradius 12.5199
rwrist 58.8981
rhand -14.6771 -37.1422
rfingers 7.12502
rthumb 11.4762 -66.8081
lclavicle -1.16786e-014 -1.31198e-014
lhumerus -19.0758 -9.42451 91.3345
lradius 35.6898
lwrist -17.587
lhand -29.8071 -25.8805
lfingers 7.12502
lthumb -3.13114 4.07621
rfemur -53.961 1.22222 12.6288
rtibia 26.9868
rfoot -12.852 -3.60836
rtoes -30.707
lfemur -3.35033 -7.43968 -27.4704
ltibia 14.5456
lfoot -17.9552 -13.5714
ltoes 10.6229
201
root 6.97065 18.4207 21.9998 -169.03 -1.61612 176.468
lowerback 2.97797 -1.96742 -10.6367
upperback 3.64318 -2.99426 1.23229
thorax 2.76034 -1.89119 7.26897
lowerneck -6.51437 -0.570494 -3.02148
upperneck 21.1947 -0.192492 5.08499
head 7.57954 0.576579 2.22424
rclavicle 6.53505e-015 4.91992e-015
rhumerus -97.4245 -45.4814 4.30693
rradius 12.213
rwrist 61.4067
rhand -13.8031 -36.9893
rfingers 7.12502
rthumb 12.3189 -66.6064
lclavicle 6.53505e-015 4.91992e-015
lhumerus -18.3823 -9.76802 91.6258
lradius 35.7515
lwrist -18.0556
lhand -29.7819 -25.5555
lfingers 7.12502
lthumb -3.10679 4.40159
rfemur -53.4102 0.500321 12.6199
rtibia 25.4806
rfoot -12.5702 -3.91204
rtoes -34.3649
lfemur -2.06763 -7.35986 -27.4863
ltibia 14.7539
lfoot -17.2799 -13.9947
ltoes 9.66334
202
root 6.99238 18.3996 21.711 -169.217 -2.60539 176.275
lowerback 3.03541 -2.2094 -10.5183
upperback 3.76845 -3.32807 1.32931
thorax 2.92769 -2.075 7.29811
lowerneck -6.99914 -0.60746 -2.76977
upperneck 21.8691 -0.162965 4.71915
head 7.89087 0.603542 2.08115
rclavicle 6.32384e-014 8.69683e-015
rhumerus -100.976 -44.7483 8.8231
rradius 11.8962
rwrist 64.0926
rhand -13.2439 -36.9714
rfingers 7.12502
rthumb 12.8581 -66.5553
lclavicle 6.32384e-014 8.69683e-015
lhumerus -17.8143 -9.89382 91.8978
lradius 35.6701
lwrist -18.7004
lhand -29.8104 -25.4591
lfingers 7.12502
lthumb -3.13434 4.49763
rfemur -52.7502 -0.282869 12.54
rtibia 24.6006
rfoot -12.5196 -4.55864
rtoes -35.9658
lfemur -1.02672 -7.52759 -27.5229
ltibia 15.3655
lfoot -16.6488 -14.3471
ltoes 8.33947
